<svg xmlns="http://www.w3.org/2000/svg" height="100%" width="100%" version="1.1" viewBox="0 0 304 146"><path d="m56.165 56.77 11.413-8.291 4.36 13.416-11.413 8.292Z" fill="#ffffff" stroke="#1E1E1E"/><path d="m67.578 48.479 5.706-4.146 11.413 8.292-12.76 9.27Z" fill="#ffffff" stroke="#1E1E1E"/><path d="m84.697 36.041 11.413 8.292-11.413 8.292-11.413-8.292Z" fill="#ffffff" stroke="#1E1E1E"/><path d="m96.11 44.333 5.706 4.146-4.36 13.416-12.76-9.27Z" fill="#ffffff" stroke="#1E1E1E"/><path d="m113.229 56.77-4.36 13.417-11.412-8.292 4.359-13.416Z" fill="#ffffff" stroke="#1E1E1E"/><path d="m108.87 70.187-2.18 6.708H92.583l4.874-15Zm-6.54 20.125H88.225l4.359-13.417h14.107Z" fill="#ffffff" stroke="#1E1E1E"/><path d="M88.224 90.312H81.17l-4.359-13.417h15.772Z" fill="#ffffff" stroke="#1E1E1E"/><path d="m67.063 90.312-4.359-13.417h14.107l4.36 13.417Zm-4.359-13.417-2.18-6.708 11.413-8.292 4.874 15Z" fill="#ffffff" stroke="#1E1E1E"/><path d="m71.937 61.895 12.76-9.27 12.76 9.27-4.874 15H76.81Z" fill="#ffffff" stroke="#1E1E1E"/><text dy=".7ex" text-anchor="middle" x="84.197" y="65.541" transform="translate(.5 .5)">U</text><path d="M205.563 56.77h14.106l-4.359 13.417h-14.107Zm14.107 0h7.053l4.36 13.417H215.31Z" fill="#999999" stroke="#1E1E1E"/><path d="m240.83 56.77 4.359 13.417h-14.107l-4.36-13.416Zm4.359 13.417 2.18 6.708-11.413 8.292-4.874-15Z" fill="#999999" stroke="#1E1E1E"/><path d="m251.728 90.312-11.413 8.291-4.36-13.416 11.414-8.292Z" fill="#999999" stroke="#1E1E1E"/><path d="m240.315 98.603-5.706 4.146-11.413-8.292 12.76-9.27Z" fill="#999999" stroke="#1E1E1E"/><path d="m223.196 111.041-11.413-8.292 11.413-8.292 11.413 8.292Z" fill="#999999" stroke="#1E1E1E"/><path d="m211.783 102.75-5.706-4.147 4.36-13.416 12.76 9.27Zm-17.119-12.438 4.36-13.417 11.412 8.292-4.359 13.416Z" fill="#999999" stroke="#1E1E1E"/><path d="m199.024 76.895 2.18-6.708h14.106l-4.874 15Z" fill="#999999" stroke="#1E1E1E"/><path d="M215.31 70.187h15.772l4.874 15-12.76 9.27-12.76-9.27Z" fill="#999999" stroke="#1E1E1E"/><path d="m166.133 111.041 11.412-8.292 4.36 13.417-11.413 8.291Z" fill="#ffffb3" stroke="#1E1E1E"/><path d="m177.545 102.75 5.707-4.147 11.412 8.292-12.76 9.27Z" fill="#ffffb3" stroke="#1E1E1E"/><path d="m194.664 90.312 11.413 8.291-11.413 8.292-11.412-8.292Zm11.413 8.291 5.706 4.146-4.359 13.417-12.76-9.27Zm17.119 12.438-4.36 13.416-11.412-8.291 4.36-13.417Z" fill="#ffffb3" stroke="#1E1E1E"/><path d="m218.837 124.457-2.18 6.709H202.55l4.874-15Zm-6.539 20.125h-14.107l4.36-13.416h14.106Zm-14.107 0h-7.053l-4.36-13.416h15.772Z" fill="#ffffb3" stroke="#1E1E1E"/><path d="m177.03 144.582-4.358-13.416h14.106l4.36 13.416Zm-4.358-13.416-2.18-6.709 11.413-8.291 4.873 15Z" fill="#ffffb3" stroke="#1E1E1E"/><path d="m181.905 116.166 12.76-9.27 12.76 9.27-4.875 15h-15.772Z" fill="#ffffb3" stroke="#1E1E1E"/><path d="m223.196 111.041 11.413-8.292 4.359 13.417-11.413 8.291Z" fill="#88ddff" stroke="#1E1E1E"/><path d="m234.609 102.75 5.706-4.147 11.413 8.292-12.76 9.27Z" fill="#88ddff" stroke="#1E1E1E"/><path d="m251.728 90.312 11.412 8.291-11.412 8.292-11.413-8.292Zm11.412 8.291 5.707 4.146-4.36 13.417-12.76-9.27Zm17.12 12.438-4.36 13.416-11.412-8.291 4.359-13.417Z" fill="#88ddff" stroke="#1E1E1E"/><path d="m275.9 124.457-2.18 6.709h-14.106l4.874-15Zm-6.539 20.125h-14.106l4.359-13.416h14.107Zm-14.106 0H248.2l-4.36-13.416h15.773Z" fill="#88ddff" stroke="#1E1E1E"/><path d="m234.094 144.582-4.359-13.416h14.107l4.36 13.416Zm-4.359-13.416-2.18-6.709 11.413-8.291 4.874 15Z" fill="#88ddff" stroke="#1E1E1E"/><path d="m238.968 116.166 12.76-9.27 12.76 9.27-4.874 15h-15.772Z" fill="#88ddff" stroke="#1E1E1E"/><path d="m240.83 56.77 11.412-8.291 4.36 13.416-11.413 8.292Z" fill="#ff8433" stroke="#1E1E1E"/><path d="m252.242 48.479 5.707-4.146 11.412 8.292-12.76 9.27Z" fill="#ff8433" stroke="#1E1E1E"/><path d="m269.361 36.041 11.413 8.292-11.413 8.292-11.412-8.292Zm11.413 8.292 5.706 4.146-4.359 13.416-12.76-9.27Z" fill="#ff8433" stroke="#1E1E1E"/><path d="m297.893 56.77-4.36 13.417-11.412-8.292 4.36-13.416Z" fill="#ff8433" stroke="#1E1E1E"/><path d="m293.534 70.187-2.18 6.708h-14.107l4.874-15Zm-6.539 20.125h-14.107l4.36-13.417h14.106Zm-14.107 0h-7.053l-4.36-13.417h15.772Z" fill="#ff8433" stroke="#1E1E1E"/><path d="m251.728 90.312-4.36-13.417h14.107l4.36 13.417Zm-4.359-13.417-2.18-6.708 11.413-8.292 4.873 15Z" fill="#ff8433" stroke="#1E1E1E"/><path d="m256.602 61.895 12.76-9.27 12.76 9.27-4.875 15h-15.772Z" fill="#ff8433" stroke="#1E1E1E"/><path d="M20.898 56.77h14.107l-4.36 13.417H16.54Zm14.107 0h7.053l4.36 13.417H30.646Z" fill="#8a1aff" stroke="#1E1E1E"/><path d="m56.165 56.77 4.36 13.417H46.418l-4.36-13.416Zm4.36 13.417 2.18 6.708-11.414 8.292-4.873-15Z" fill="#8a1aff" stroke="#1E1E1E"/><path d="m67.063 90.312-11.412 8.291-4.36-13.416 11.413-8.292Z" fill="#8a1aff" stroke="#1E1E1E"/><path d="m55.65 98.603-5.706 4.146-11.412-8.292 12.76-9.27Z" fill="#8a1aff" stroke="#1E1E1E"/><path d="m38.532 111.041-11.413-8.292 11.413-8.292 11.412 8.292Z" fill="#8a1aff" stroke="#1E1E1E"/><path d="m27.119 102.75-5.706-4.147 4.359-13.416 12.76 9.27ZM10 90.312l4.36-13.417 11.412 8.292-4.36 13.416Z" fill="#8a1aff" stroke="#1E1E1E"/><path d="m14.36 76.895 2.179-6.708h14.107l-4.874 15Z" fill="#8a1aff" stroke="#1E1E1E"/><path d="M30.646 70.187h15.772l4.873 15-12.76 9.27-12.76-9.27Z" fill="#8a1aff" stroke="#1E1E1E"/><path d="m148.5 56.77 11.412-8.291 4.36 13.416-11.414 8.292Z" fill="#ff99ff" stroke="#1E1E1E"/><path d="m159.912 48.479 5.706-4.146 11.413 8.292-12.76 9.27Z" fill="#ff99ff" stroke="#1E1E1E"/><path d="m177.03 36.041 11.414 8.292-11.413 8.292-11.413-8.292Z" fill="#ff99ff" stroke="#1E1E1E"/><path d="m188.444 44.333 5.706 4.146-4.36 13.416-12.76-9.27Zm17.119 12.437-4.36 13.417-11.412-8.292 4.359-13.416Z" fill="#ff99ff" stroke="#1E1E1E"/><path d="m201.203 70.187-2.18 6.708h-14.106l4.874-15Zm-6.539 20.125h-14.106l4.359-13.417h14.107Zm-14.106 0h-7.054l-4.36-13.417h15.773Z" fill="#ff99ff" stroke="#1E1E1E"/><path d="m159.397 90.312-4.359-13.417h14.107l4.36 13.417Zm-4.359-13.417-2.18-6.708 11.413-8.292 4.874 15Z" fill="#ff99ff" stroke="#1E1E1E"/><path d="m164.271 61.895 12.76-9.27 12.76 9.27-4.874 15h-15.772Z" fill="#ff99ff" stroke="#1E1E1E"/><path d="m194.664 23.23 11.413-8.292 4.36 13.416-11.413 8.292Z" fill="#71e600" stroke="#1E1E1E"/><path d="m206.077 14.938 5.706-4.146 11.413 8.292-12.76 9.27ZM223.196 2.5l11.413 8.292-11.413 8.292-11.413-8.292Z" fill="#71e600" stroke="#1E1E1E"/><path d="m234.609 10.792 5.706 4.146-4.36 13.416-12.759-9.27Zm17.119 12.438-4.36 13.416-11.412-8.292 4.36-13.416Z" fill="#71e600" stroke="#1E1E1E"/><path d="m247.369 36.646-2.18 6.708h-14.107l4.874-15ZM240.83 56.77h-14.107l4.36-13.416h14.106Zm-14.107 0h-7.054l-4.359-13.416h15.772Z" fill="#71e600" stroke="#1E1E1E"/><path d="m205.563 56.77-4.36-13.416h14.107l4.36 13.417Zm-4.36-13.416-2.18-6.708 11.413-8.292 4.874 15Zm9.233-15 12.76-9.27 12.76 9.27-4.874 15H215.31Z" fill="#71e600" stroke="#1E1E1E"/><path d="M113.229 56.77h14.106l-4.359 13.417H108.87Z" fill="#dd0000" stroke="#1E1E1E"/><path d="M127.335 56.77h7.054l4.36 13.417h-15.773Z" fill="#dd0000" stroke="#1E1E1E"/><path d="m148.496 56.77 4.359 13.417h-14.107l-4.36-13.416Zm4.359 13.417 2.18 6.708-11.413 8.292-4.874-15Zm6.539 20.125-11.413 8.291-4.359-13.416 11.413-8.292Z" fill="#dd0000" stroke="#1E1E1E"/><path d="m147.981 98.603-5.706 4.146-11.413-8.292 12.76-9.27Z" fill="#dd0000" stroke="#1E1E1E"/><path d="m130.862 111.041-11.412-8.292 11.412-8.292 11.413 8.292Z" fill="#dd0000" stroke="#1E1E1E"/><path d="m119.45 102.75-5.707-4.147 4.36-13.416 12.76 9.27Zm-17.12-12.438 4.36-13.417 11.412 8.292-4.359 13.416Z" fill="#dd0000" stroke="#1E1E1E"/><path d="m106.69 76.895 2.18-6.708h14.106l-4.874 15Z" fill="#dd0000" stroke="#1E1E1E"/><path d="M122.976 70.187h15.772l4.874 15-12.76 9.27-12.76-9.27Z" fill="#dd0000" stroke="#1E1E1E"/><path d="M67.063 90.312H81.17l-4.359 13.416H62.704Z" fill="#006600" stroke="#1E1E1E"/><path d="M81.17 90.312h7.054l4.359 13.416H76.81Z" fill="#006600" stroke="#1E1E1E"/><path d="m102.33 90.312 4.36 13.416H92.583l-4.36-13.416Zm4.36 13.416 2.18 6.708-11.413 8.292-4.874-15Z" fill="#006600" stroke="#1E1E1E"/><path d="m113.229 123.853-11.413 8.291-4.36-13.416 11.413-8.292Z" fill="#006600" stroke="#1E1E1E"/><path d="m101.816 132.144-5.706 4.146-11.413-8.292 12.76-9.27Z" fill="#006600" stroke="#1E1E1E"/><path d="m84.697 144.582-11.413-8.292 11.413-8.292 11.413 8.292Z" fill="#006600" stroke="#1E1E1E"/><path d="m73.284 136.29-5.706-4.146 4.36-13.416 12.759 9.27Zm-17.119-12.437 4.36-13.417 11.412 8.292-4.36 13.416Z" fill="#006600" stroke="#1E1E1E"/><path d="m60.525 110.436 2.18-6.708H76.81l-4.874 15Zm16.286-6.708h15.772l4.874 15-12.76 9.27-12.76-9.27Z" fill="#006600" stroke="#1E1E1E"/><text dy=".7ex" text-anchor="middle" x="84.197" y="114.082" transform="translate(.5 .5)">F</text><path d="M95.595 2.5h14.107l-4.36 13.416H91.237Zm14.107 0h7.053l4.36 13.416h-15.772Zm21.16 0 4.36 13.416h-14.107L116.755 2.5Zm4.359 13.416 2.18 6.709-11.413 8.291-4.873-15Z" fill="#0000b3" stroke="#1E1E1E"/><path d="m141.76 36.041-11.412 8.292-4.36-13.417 11.413-8.291Z" fill="#0000b3" stroke="#1E1E1E"/><path d="m130.348 44.333-5.707 4.146-11.412-8.292 12.76-9.27ZM113.229 56.77l-11.413-8.291 11.413-8.292 11.412 8.292Zm-11.413-8.291-5.706-4.146 4.359-13.417 12.76 9.27Z" fill="#0000b3" stroke="#1E1E1E"/><path d="m84.697 36.041 4.36-13.416 11.412 8.291-4.36 13.417Z" fill="#0000b3" stroke="#1E1E1E"/><path d="m89.056 22.625 2.18-6.709h14.107l-4.874 15Z" fill="#0000b3" stroke="#1E1E1E"/><path d="M105.343 15.916h15.772l4.873 15-12.76 9.27-12.76-9.27Z" fill="#0000b3" stroke="#1E1E1E"/><path d="M38.532 2.5h14.107l-4.36 13.416H34.172Z" fill="#ffcc00" stroke="#1E1E1E"/><path d="M52.639 2.5h7.053l4.36 13.416H48.278Z" fill="#ffcc00" stroke="#1E1E1E"/><path d="m73.799 2.5 4.36 13.416H64.05L59.692 2.5Zm4.359 13.416 2.18 6.709-11.413 8.291-4.874-15Z" fill="#ffcc00" stroke="#1E1E1E"/><path d="m84.697 36.041-11.413 8.292-4.359-13.417 11.413-8.291Zm-11.413 8.292-5.706 4.146-11.413-8.292 12.76-9.27ZM56.165 56.77l-11.412-8.29 11.412-8.292 11.413 8.292Zm-11.412-8.291-5.707-4.146 4.36-13.417 12.76 9.27ZM27.634 36.041l4.359-13.416 11.412 8.291-4.359 13.417Z" fill="#ffcc00" stroke="#1E1E1E"/><path d="m31.993 22.625 2.18-6.709h14.106l-4.874 15Z" fill="#ffcc00" stroke="#1E1E1E"/><path d="M48.28 15.916h15.77l4.874 15-12.76 9.27-12.76-9.27Z" fill="#ffcc00" stroke="#1E1E1E"/></svg>
