<svg xmlns="http://www.w3.org/2000/svg" viewBox="0 0 200 170" style="stroke-linejoin:round;stroke-width:2px;stroke-miterlimit:10"><g stroke="#1E1E1E"><path d="m100.5 6.462 14.722 25.5H85.778Zm14.722 25.5H85.778l14.722 25.5Zm0 0 14.723 25.5H100.5Zm29.445 51h-29.445l14.723-25.5Zm-29.445 0 14.723-25.5H100.5Zm0 0H85.778l14.722-25.5Zm-58.889 0 14.722-25.5 14.723 25.5Z" fill="#0f0"/><path d="m71.055 57.462 14.723 25.5 14.722-25.5Zm0 0 14.723-25.5 14.722 25.5Z" fill="#0f0"/><path d="M56.333 88.923h29.445l-14.723 25.5Zm29.445 0-14.723 25.5H100.5Zm0 0h29.444l-14.722 25.5Zm58.889 0-14.722 25.5-14.723-25.5Z" fill="#ff0"/><path d="m129.945 114.423-14.723-25.5-14.722 25.5Zm0 0-14.723 25.5-14.722-25.5Zm-29.445 51-14.722-25.5h29.444Z" fill="#ff0"/><path d="M85.778 139.923h29.444l-14.722-25.5Zm0 0-14.723-25.5H100.5Z" fill="#ff0"/><path d="M6.333 5.98h29.445l-14.723 25.5Zm29.445 0-14.723 25.5H50.5Z" fill="red"/><path d="M35.778 5.98h29.444L50.5 31.48Zm58.889 0-14.722 25.5-14.723-25.5Zm-14.722 25.5L65.222 5.98 50.5 31.48Zm0 0-14.723 25.5L50.5 31.48Zm-29.445 51-14.722-25.5h29.444Zm-14.722-25.5h29.444L50.5 31.48Z" fill="red"/><path d="m35.778 56.98-14.723-25.5H50.5Z" fill="red"/><path d="M106.333 5.98h29.445l-14.723 25.5Zm29.445 0-14.723 25.5H150.5Z" fill="#00f"/><path d="M135.778 5.98h29.444L150.5 31.48Zm58.889 0-14.722 25.5-14.723-25.5Z" fill="#00f"/><path d="m179.945 31.48-14.723-25.5-14.722 25.5Zm0 0-14.723 25.5-14.722-25.5Zm-29.445 51-14.722-25.5h29.444Z" fill="#00f"/><path d="M135.778 56.98h29.444L150.5 31.48Z" fill="#00f"/><path d="m135.778 56.98-14.723-25.5H150.5Z" fill="#00f"/></g></svg>