<svg xmlns="http://www.w3.org/2000/svg" viewBox="0 0 122 244" style="stroke-linejoin:round;stroke-width:2px;stroke-miterlimit:10"><path fill="#ff0000" d="M18.227 116.1h86.547v12.8H18.227z"/><path fill="#ff0000" d="M18.227 116.1h31.678v12.8H18.227z"/><path fill="none" stroke="#1E1E1E" d="M18.227 116.1h86.547v12.8H18.227z"/><path fill="none" stroke="#1E1E1E" d="M18.227 116.1h31.678v12.8H18.227z"/><path d="M18.227 104.773 30.59 92.41V69.782l-12.363 3.313Z" fill="#0000ff" stroke="#1E1E1E"/><path d="m53.218 92.41-3.313 12.363H18.227L30.59 92.41Z" fill="#ff0000" stroke="#1E1E1E"/><path d="m61.5 61.5-8.282 30.91H30.59V69.782Z" fill="#ffff00" stroke="#1E1E1E"/><path d="m30.59 69.782-12.363 3.313v-23.19l12.363 3.313Z" fill="#0000ff" stroke="#1E1E1E"/><path d="m61.5 61.5-30.91 8.282V53.218Z" fill="#ffff00" stroke="#1E1E1E"/><path d="M18.227 18.227 30.59 30.59h22.628l-3.313-12.363Z" fill="#ff8000" stroke="#1E1E1E"/><path d="m30.59 53.218-12.363-3.313V18.227L30.59 30.59Z" fill="#0000ff" stroke="#1E1E1E"/><path d="m61.5 61.5-30.91-8.282V30.59h22.628Z" fill="#ffff00" stroke="#1E1E1E"/><path d="m53.218 30.59-3.313-12.363h23.19L69.782 30.59Z" fill="#ff8000" stroke="#1E1E1E"/><path d="m61.5 61.5-8.282-30.91h16.564Z" fill="#ffff00" stroke="#1E1E1E"/><path d="M104.773 18.227 92.41 30.59v22.628l12.363-3.313Z" fill="#00ff00" stroke="#1E1E1E"/><path d="m69.782 30.59 3.313-12.363h31.678L92.41 30.59Z" fill="#ff8000" stroke="#1E1E1E"/><path d="m61.5 61.5 8.282-30.91H92.41v22.628Z" fill="#ffff00" stroke="#1E1E1E"/><path d="m92.41 53.218 12.363-3.313v23.19L92.41 69.782Z" fill="#00ff00" stroke="#1E1E1E"/><path d="m61.5 61.5 30.91-8.282v16.564Z" fill="#ffff00" stroke="#1E1E1E"/><path d="M104.773 104.773 92.41 92.41H69.782l3.313 12.363Z" fill="#ff0000" stroke="#1E1E1E"/><path d="m92.41 69.782 12.363 3.313v31.678L92.41 92.41Z" fill="#00ff00" stroke="#1E1E1E"/><path d="m61.5 61.5 30.91 8.282V92.41H69.782Z" fill="#ffff00" stroke="#1E1E1E"/><path d="m69.782 92.41 3.313 12.363h-23.19l3.313-12.363Z" fill="#ff0000" stroke="#1E1E1E"/><path d="m61.5 61.5 8.282 30.91H53.218Z" fill="#ffff00" stroke="#1E1E1E"/><path d="m53.218 152.59-3.313-12.363h23.19l-3.313 12.363Z" fill="#ff0000" stroke="#1E1E1E"/><path d="m61.5 183.5-8.282-30.91h16.564Z" fill="#ffffff" stroke="#1E1E1E"/><path d="M104.773 140.227 92.41 152.59v22.628l12.363-3.313Z" fill="#00ff00" stroke="#1E1E1E"/><path d="m69.782 152.59 3.313-12.363h31.678L92.41 152.59Z" fill="#ff0000" stroke="#1E1E1E"/><path d="m61.5 183.5 8.282-30.91H92.41v22.628Z" fill="#ffffff" stroke="#1E1E1E"/><path d="m92.41 175.218 12.363-3.313v23.19l-12.363-3.313Z" fill="#00ff00" stroke="#1E1E1E"/><path d="m61.5 183.5 30.91-8.282v16.564Z" fill="#ffffff" stroke="#1E1E1E"/><path d="M104.773 226.773 92.41 214.41H69.782l3.313 12.363Z" fill="#ff8000" stroke="#1E1E1E"/><path d="m92.41 191.782 12.363 3.313v31.678L92.41 214.41Z" fill="#00ff00" stroke="#1E1E1E"/><path d="m61.5 183.5 30.91 8.282v22.628H69.782Z" fill="#ffffff" stroke="#1E1E1E"/><path d="m69.782 214.41 3.313 12.363h-23.19l3.313-12.363Z" fill="#ff8000" stroke="#1E1E1E"/><path d="m61.5 183.5 8.282 30.91H53.218Z" fill="#ffffff" stroke="#1E1E1E"/><path d="M18.227 226.773 30.59 214.41v-22.628l-12.363 3.313Z" fill="#0000ff" stroke="#1E1E1E"/><path d="m53.218 214.41-3.313 12.363H18.227L30.59 214.41Z" fill="#ff8000" stroke="#1E1E1E"/><path d="m61.5 183.5-8.282 30.91H30.59v-22.628Z" fill="#ffffff" stroke="#1E1E1E"/><path d="m30.59 191.782-12.363 3.313v-23.19l12.363 3.313Z" fill="#0000ff" stroke="#1E1E1E"/><path d="m61.5 183.5-30.91 8.282v-16.564Z" fill="#ffffff" stroke="#1E1E1E"/><path d="M18.227 140.227 30.59 152.59h22.628l-3.313-12.363Z" fill="#ff0000" stroke="#1E1E1E"/><path d="m30.59 175.218-12.363-3.313v-31.678L30.59 152.59Z" fill="#0000ff" stroke="#1E1E1E"/><path d="m61.5 183.5-30.91-8.282V152.59h22.628Z" fill="#ffffff" stroke="#1E1E1E"/></svg>